 <svg className="h-5 w-5 text-gray-500" fill="none" viewBox="0 0 24 24" stroke="currentColor">
                                    <path strokeLinecap="round" strokeLinejoin="round" strokeWidth="2" d="M13.875 18.825A10.013 10.013 0 0112 20c-3.451 0-6.737-1.353-9.193-3.806l1.415-1.415A7.98 7.98 0 0012 18a7.98 7.98 0 005.778-2.242l1.415 1.415A10.013 10.013 0 0112 20c-.701 0-1.391-.065-2.075-.175M19.071 4.929A10.013 10.013 0 0120 12c0 2.454-.901 4.695-2.394 6.394l1.415 1.415A12.045 12.045 0 0022 12c0-3.137-1.205-6.137-3.514-8.485L17.071 4.93zM2.929 19.071A12.045 12.045 0 002 12c0-3.137 1.205-6.137 3.514-8.485L4.93 2.929A10.013 10.013 0 014 12c0 2.454.901 4.695 2.394 6.394l1.415-1.415A7.98 7.98 0 004 12c0-2.178.841-4.171 2.342-5.657L6.515 4.93A10.013 10.013 0 002 12c0 2.454.901 4.695 2.394 6.394l1.415-1.415A7.98 7.98 0 002 12c0-2.178.841-4.171 2.342-5.657L4.93 4.93z" />
                                </svg>